<?xml version="1.0" encoding="UTF-8"?>
<svg width="63px" height="63px" viewBox="0 0 63 63" version="1.1" xmlns="http://www.w3.org/2000/svg" xmlns:xlink="http://www.w3.org/1999/xlink">
    <title>Group 3 Copy</title>
    <g id="Symbols" stroke="none" stroke-width="1" fill="none" fill-rule="evenodd">
        <g id="Mobile-Copy-2" transform="translate(-35.000000, -208.000000)">
            <g id="Group-3-Copy" transform="translate(35.000000, 208.000000)">
                <g id="Group">
                    <circle id="Oval-Copy-2" fill="#FF5400" cx="38" cy="31.32" r="8.4"></circle>
                    <path d="M16,6.84692827 L16,60.8 C16,61.6836556 16.7163444,62.4 17.6,62.4 L60.8,62.4 C61.6836556,62.4 62.4,61.6836556 62.4,60.8 L62.4,52.3105577 C62.4,51.4269021 61.6836556,50.7105577 60.8,50.7105577 L30.5575464,50.7105577 C29.6738908,50.7105577 28.9575464,49.9942133 28.9575464,49.1105577 L28.9575464,2.47106248 C28.9575464,1.58740688 28.241202,0.871062475 27.3575464,0.871062475 C27.1318717,0.871062475 26.9087497,0.918802638 26.7028336,1.01114772 L16.9452871,5.38701352 C16.3701172,5.64495402 16,6.21656824 16,6.84692827 Z" id="Path-2-Copy-16" fill="#363430" fill-rule="nonzero" transform="translate(39.200000, 31.200000) scale(-1, -1) translate(-39.200000, -31.200000) "></path>
                    <path d="M0,6.84692827 L0,60.8 C-3.81600257e-15,61.6836556 0.7163444,62.4 1.6,62.4 L44.8,62.4 C45.6836556,62.4 46.4,61.6836556 46.4,60.8 L46.4,52.3105577 C46.4,51.4269021 45.6836556,50.7105577 44.8,50.7105577 L14.5575464,50.7105577 C13.6738908,50.7105577 12.9575464,49.9942133 12.9575464,49.1105577 L12.9575464,2.47106248 C12.9575464,1.58740688 12.241202,0.871062475 11.3575464,0.871062475 C11.1318717,0.871062475 10.9087497,0.918802638 10.7028336,1.01114772 L0.945287149,5.38701352 C0.370117211,5.64495402 -8.01222134e-16,6.21656824 0,6.84692827 Z" id="Path-2-Copy-17" fill="#363430" fill-rule="nonzero"></path>
                </g>
                <g id="Group-2" transform="translate(28.000000, 19.000000)">
                    <circle id="Oval" fill="#FF5400" cx="10" cy="12" r="9"></circle>
                    <path d="M15.1944609,16.7778824 C13.9959455,17.2638181 15.6956553,18.8485217 16.5499145,18.5049012 C17.8098686,17.9980923 23.151915,7.68578086 12.1114078,4.49064652 C6.48258837,2.86166029 2.50557363,9.76328731 2.9892247,11.0835694 C3.26380146,11.8331155 5.22263426,3.36846911 12.2022505,6.63247299 C19.1818668,9.89647686 16.3929762,16.2919467 15.1944609,16.7778824 Z" id="Triangle" fill="#CD3A29" transform="translate(10.949435, 11.398277) rotate(57.000000) translate(-10.949435, -11.398277) "></path>
                </g>
            </g>
        </g>
    </g>
</svg>