<?xml version="1.0" encoding="UTF-8"?>
<svg width="553px" height="553px" viewBox="0 0 553 553" version="1.1" xmlns="http://www.w3.org/2000/svg" xmlns:xlink="http://www.w3.org/1999/xlink">
    <title>Group 3 Copy</title>
    <g id="Symbols" stroke="none" stroke-width="1" fill="none" fill-rule="evenodd">
        <g id="Artboard-Copy-3" transform="translate(-224.000000, -224.000000)">
            <g id="Group-3-Copy" transform="translate(224.000000, 224.000000)">
                <g id="Group">
                    <circle id="Oval-Copy-2" fill="#FF5400" cx="336.571429" cy="277.405714" r="74.4"></circle>
                    <path d="M141.714286,60.6442218 L141.714286,538.514286 C141.714286,546.34095 148.05905,552.685714 155.885714,552.685714 L538.514286,552.685714 C546.34095,552.685714 552.685714,546.34095 552.685714,538.514286 L552.685714,463.322082 C552.685714,455.495418 546.34095,449.150654 538.514286,449.150654 L270.652554,449.150654 C262.82589,449.150654 256.481125,442.805889 256.481125,434.979225 L256.481125,21.8865534 C256.481125,14.0598895 250.136361,7.71512478 242.309697,7.71512478 C240.310864,7.71512478 238.33464,8.13796622 236.510812,8.95587983 L150.086829,47.7135483 C144.992467,49.9981642 141.714286,55.061033 141.714286,60.6442218 Z" id="Path-2-Copy-16" fill="#FFFDF7" fill-rule="nonzero" transform="translate(347.200000, 276.342857) scale(-1, -1) translate(-347.200000, -276.342857) "></path>
                    <path d="M0,60.6442218 L0,538.514286 C4.51120357e-15,546.34095 6.34476469,552.685714 14.1714286,552.685714 L396.8,552.685714 C404.626664,552.685714 410.971429,546.34095 410.971429,538.514286 L410.971429,463.322082 C410.971429,455.495418 404.626664,449.150654 396.8,449.150654 L128.938268,449.150654 C121.111604,449.150654 114.76684,442.805889 114.76684,434.979225 L114.76684,21.8865534 C114.76684,14.0598895 108.422075,7.71512478 100.595411,7.71512478 C98.5965778,7.71512478 96.6203546,8.13796622 94.7965258,8.95587983 L8.37254332,47.7135483 C3.27818102,49.9981642 -8.49224785e-15,55.061033 0,60.6442218 Z" id="Path-2-Copy-17" fill="#FFFDF7" fill-rule="nonzero"></path>
                </g>
                <g id="Group-2" transform="translate(253.000000, 175.285714)">
                    <circle id="Oval" fill="#FF5400" cx="83.5714286" cy="99.2857143" r="79.7142857"></circle>
                    <path d="M129.579511,141.604101 C118.964089,145.908103 134.018661,159.944049 141.584957,156.900553 C152.744551,152.411675 200.059819,61.0740591 102.272469,32.7742978 C52.4172113,18.346134 17.1922236,79.4748305 21.4759902,91.1687577 C23.9079557,97.8075946 41.2576178,22.8350121 103.077076,51.7447607 C164.896534,80.6545093 140.194932,137.3001 129.579511,141.604101 Z" id="Triangle" fill="#CD3A29" transform="translate(91.980711, 93.956163) rotate(57.000000) translate(-91.980711, -93.956163) "></path>
                </g>
            </g>
        </g>
    </g>
</svg>